<svg width="53" height="29" viewBox="0 0 53 29" fill="none" xmlns="http://www.w3.org/2000/svg">
<g filter="url(#filter0_d_206_77)">
<path d="M4 21.5C4 20.1193 5.11929 19 6.5 19H46.5C47.8807 19 49 20.1193 49 21.5C49 22.8807 47.8807 24 46.5 24H6.5C5.11929 24 4 22.8807 4 21.5Z" fill="white"/>
<path d="M4 21.5C4 20.1193 5.11929 19 6.5 19H46.5C47.8807 19 49 20.1193 49 21.5C49 22.8807 47.8807 24 46.5 24H6.5C5.11929 24 4 22.8807 4 21.5Z" fill="white"/>
<path d="M4.5 21.5C4.5 20.3954 5.39543 19.5 6.5 19.5H46.5C47.6046 19.5 48.5 20.3954 48.5 21.5C48.5 22.6046 47.6046 23.5 46.5 23.5H6.5C5.39543 23.5 4.5 22.6046 4.5 21.5Z" stroke="black" stroke-opacity="0.5"/>
</g>
<g filter="url(#filter1_d_206_77)">
<path d="M4 13.5C4 12.1193 5.11929 11 6.5 11H46.5C47.8807 11 49 12.1193 49 13.5C49 14.8807 47.8807 16 46.5 16H6.5C5.11929 16 4 14.8807 4 13.5Z" fill="white"/>
<path d="M4 13.5C4 12.1193 5.11929 11 6.5 11H46.5C47.8807 11 49 12.1193 49 13.5C49 14.8807 47.8807 16 46.5 16H6.5C5.11929 16 4 14.8807 4 13.5Z" fill="white"/>
<path d="M4.5 13.5C4.5 12.3954 5.39543 11.5 6.5 11.5H46.5C47.6046 11.5 48.5 12.3954 48.5 13.5C48.5 14.6046 47.6046 15.5 46.5 15.5H6.5C5.39543 15.5 4.5 14.6046 4.5 13.5Z" stroke="black" stroke-opacity="0.5"/>
</g>
<g filter="url(#filter2_d_206_77)">
<path d="M4 5.5C4 4.11929 5.11929 3 6.5 3H46.5C47.8807 3 49 4.11929 49 5.5C49 6.88071 47.8807 8 46.5 8H6.5C5.11929 8 4 6.88071 4 5.5Z" fill="white"/>
<path d="M4 5.5C4 4.11929 5.11929 3 6.5 3H46.5C47.8807 3 49 4.11929 49 5.5C49 6.88071 47.8807 8 46.5 8H6.5C5.11929 8 4 6.88071 4 5.5Z" fill="white"/>
<path d="M4.5 5.5C4.5 4.39543 5.39543 3.5 6.5 3.5H46.5C47.6046 3.5 48.5 4.39543 48.5 5.5C48.5 6.60457 47.6046 7.5 46.5 7.5H6.5C5.39543 7.5 4.5 6.60457 4.5 5.5Z" stroke="black" stroke-opacity="0.5"/>
</g>
<defs>
<filter id="filter0_d_206_77" x="0" y="16" width="53" height="13" filterUnits="userSpaceOnUse" color-interpolation-filters="sRGB">
<feFlood flood-opacity="0" result="BackgroundImageFix"/>
<feColorMatrix in="SourceAlpha" type="matrix" values="0 0 0 0 0 0 0 0 0 0 0 0 0 0 0 0 0 0 127 0" result="hardAlpha"/>
<feOffset dy="1"/>
<feGaussianBlur stdDeviation="2"/>
<feComposite in2="hardAlpha" operator="out"/>
<feColorMatrix type="matrix" values="0 0 0 0 0 0 0 0 0 0 0 0 0 0 0 0 0 0 0.45 0"/>
<feBlend mode="normal" in2="BackgroundImageFix" result="effect1_dropShadow_206_77"/>
<feBlend mode="normal" in="SourceGraphic" in2="effect1_dropShadow_206_77" result="shape"/>
</filter>
<filter id="filter1_d_206_77" x="0" y="8" width="53" height="13" filterUnits="userSpaceOnUse" color-interpolation-filters="sRGB">
<feFlood flood-opacity="0" result="BackgroundImageFix"/>
<feColorMatrix in="SourceAlpha" type="matrix" values="0 0 0 0 0 0 0 0 0 0 0 0 0 0 0 0 0 0 127 0" result="hardAlpha"/>
<feOffset dy="1"/>
<feGaussianBlur stdDeviation="2"/>
<feComposite in2="hardAlpha" operator="out"/>
<feColorMatrix type="matrix" values="0 0 0 0 0 0 0 0 0 0 0 0 0 0 0 0 0 0 0.45 0"/>
<feBlend mode="normal" in2="BackgroundImageFix" result="effect1_dropShadow_206_77"/>
<feBlend mode="normal" in="SourceGraphic" in2="effect1_dropShadow_206_77" result="shape"/>
</filter>
<filter id="filter2_d_206_77" x="0" y="0" width="53" height="13" filterUnits="userSpaceOnUse" color-interpolation-filters="sRGB">
<feFlood flood-opacity="0" result="BackgroundImageFix"/>
<feColorMatrix in="SourceAlpha" type="matrix" values="0 0 0 0 0 0 0 0 0 0 0 0 0 0 0 0 0 0 127 0" result="hardAlpha"/>
<feOffset dy="1"/>
<feGaussianBlur stdDeviation="2"/>
<feComposite in2="hardAlpha" operator="out"/>
<feColorMatrix type="matrix" values="0 0 0 0 0 0 0 0 0 0 0 0 0 0 0 0 0 0 0.45 0"/>
<feBlend mode="normal" in2="BackgroundImageFix" result="effect1_dropShadow_206_77"/>
<feBlend mode="normal" in="SourceGraphic" in2="effect1_dropShadow_206_77" result="shape"/>
</filter>
</defs>
</svg>
