<svg width="339" height="163" viewBox="0 0 339 163" fill="none" xmlns="http://www.w3.org/2000/svg">
<g filter="url(#filter0_d_29_7)">
<path d="M7 53C7 25.3858 29.3858 3 57 3H282C309.614 3 332 25.3858 332 53V102C332 129.614 309.614 152 282 152H57C29.3858 152 7 129.614 7 102V53Z" fill="url(#paint0_linear_29_7)" shape-rendering="crispEdges"/>
<path d="M5.5 102C5.5 102.847 5.52046 103.69 5.56094 104.527L7.05919 104.454C7.13897 106.105 7.29879 107.735 7.53484 109.339L6.05081 109.558C6.29804 111.238 6.62647 112.893 7.03201 114.517L8.48733 114.153C8.88618 115.751 9.36186 117.317 9.9102 118.85L8.49791 119.355C9.0685 120.95 9.71544 122.508 10.4343 124.025L11.7898 123.383C12.4927 124.866 13.2665 126.31 14.1067 127.708L12.8209 128.481C13.6905 129.929 14.6293 131.33 15.6325 132.681L16.8367 131.786C17.8135 133.101 18.8535 134.367 19.952 135.578L18.8408 136.586C19.9731 137.834 21.1658 139.027 22.4144 140.159L23.422 139.048C24.6333 140.147 25.8987 141.186 27.2137 142.163L26.3193 143.367C27.6698 144.371 29.0714 145.309 30.5192 146.179L31.2916 144.893C32.6905 145.734 34.1339 146.507 35.6174 147.21L34.9751 148.566C36.4924 149.285 38.0504 149.932 39.6449 150.502L40.1503 149.09C41.6825 149.638 43.2494 150.114 44.8466 150.513L44.4832 151.968C46.1073 152.374 47.7617 152.702 49.4424 152.949L49.6607 151.465C51.2655 151.701 52.895 151.861 54.5456 151.941L54.4732 153.439C55.3105 153.48 56.1529 153.5 57 153.5H59.4456V152H64.337V153.5H69.2283V152H74.1196V153.5H79.0109V152H83.9022V153.5H88.7935V152H93.6848V153.5H98.5761V152H103.467V153.5H108.359V152H113.25V153.5H118.141V152H123.033V153.5H127.924V152H132.815V153.5H137.707V152H142.598V153.5H147.489V152H152.38V153.5H157.272V152H162.163V153.5H167.054V152H171.946V153.5H176.837V152H181.728V153.5H186.62V152H191.511V153.5H196.402V152H201.294V153.5H206.185V152H211.076V153.5H215.967V152H220.859V153.5H225.75V152H230.641V153.5H235.533V152H240.424V153.5H245.315V152H250.207V153.5H255.098V152H259.989V153.5H264.881V152H269.772V153.5H274.663V152H279.554V153.5H282C282.847 153.5 283.69 153.48 284.527 153.439L284.454 151.941C286.105 151.861 287.734 151.701 289.339 151.465L289.558 152.949C291.238 152.702 292.893 152.374 294.517 151.968L294.153 150.513C295.751 150.114 297.317 149.638 298.85 149.09L299.355 150.502C300.95 149.932 302.508 149.285 304.025 148.566L303.383 147.21C304.866 146.507 306.31 145.734 307.708 144.893L308.481 146.179C309.929 145.309 311.33 144.371 312.681 143.367L311.786 142.163C313.101 141.186 314.367 140.147 315.578 139.048L316.586 140.159C317.834 139.027 319.027 137.834 320.159 136.586L319.048 135.578C320.147 134.367 321.186 133.101 322.163 131.786L323.367 132.681C324.371 131.33 325.309 129.929 326.179 128.481L324.893 127.708C325.734 126.31 326.507 124.866 327.21 123.383L328.566 124.025C329.285 122.508 329.931 120.95 330.502 119.355L329.09 118.85C329.638 117.317 330.114 115.751 330.513 114.153L331.968 114.517C332.374 112.893 332.702 111.238 332.949 109.558L331.465 109.339C331.701 107.735 331.861 106.105 331.941 104.454L333.439 104.527C333.48 103.69 333.5 102.847 333.5 102V99.55H332V94.65H333.5V89.75H332V84.85H333.5V79.95H332V75.05H333.5V70.15H332V65.25H333.5V60.35H332V55.45H333.5V53C333.5 52.1529 333.48 51.3105 333.439 50.4732L331.941 50.5456C331.861 48.895 331.701 47.2655 331.465 45.6607L332.949 45.4424C332.702 43.7617 332.374 42.1073 331.968 40.4832L330.513 40.8467C330.114 39.2494 329.638 37.6825 329.09 36.1503L330.502 35.6449C329.931 34.0504 329.285 32.4924 328.566 30.9751L327.21 31.6174C326.507 30.1339 325.734 28.6905 324.893 27.2916L326.179 26.5192C325.309 25.0714 324.371 23.6699 323.367 22.3193L322.163 23.2138C321.186 21.8987 320.147 20.6333 319.048 19.422L320.159 18.4144C319.027 17.1658 317.834 15.9731 316.586 14.8408L315.578 15.952C314.367 14.8535 313.101 13.8135 311.786 12.8367L312.681 11.6326C311.33 10.6293 309.929 9.69052 308.481 8.82086L307.708 10.1067C306.31 9.26648 304.866 8.49273 303.383 7.78985L304.025 6.43431C302.508 5.71544 300.95 5.0685 299.355 4.49791L298.85 5.9102C297.317 5.36186 295.751 4.88619 294.153 4.48733L294.517 3.03202C292.893 2.62647 291.238 2.29804 289.558 2.05081L289.339 3.53484C287.734 3.29879 286.105 3.13897 284.454 3.05919L284.527 1.56094C283.69 1.52046 282.847 1.5 282 1.5H279.554V3H274.663V1.5H269.772V3H264.88V1.5H259.989V3H255.098V1.5H250.207V3H245.315V1.5H240.424V3H235.533V1.5H230.641V3H225.75V1.5H220.859V3H215.967V1.5H211.076V3H206.185V1.5H201.293V3H196.402V1.5H191.511V3H186.62V1.5H181.728V3H176.837V1.5H171.946V3H167.054V1.5H162.163V3H157.272V1.5H152.38V3H147.489V1.5H142.598V3H137.706V1.5H132.815V3H127.924V1.5H123.033V3H118.141V1.5H113.25V3H108.359V1.5H103.467V3H98.576V1.5H93.6847V3H88.7934V1.5H83.9021V3H79.0108V1.5H74.1194V3H69.2281V1.5H64.3368V3H59.4455V1.5H57C56.1529 1.5 55.3105 1.52046 54.4732 1.56094L54.5456 3.05919C52.895 3.13897 51.2655 3.29879 49.6607 3.53484L49.4424 2.05081C47.7617 2.29804 46.1073 2.62647 44.4832 3.03201L44.8467 4.48733C43.2494 4.88619 41.6825 5.36186 40.1503 5.9102L39.6449 4.49791C38.0504 5.0685 36.4924 5.71544 34.9751 6.4343L35.6174 7.78985C34.1339 8.49273 32.6905 9.26648 31.2916 10.1067L30.5192 8.82085C29.0714 9.69051 27.6699 10.6293 26.3193 11.6325L27.2138 12.8367C25.8987 13.8135 24.6333 14.8535 23.422 15.952L22.4144 14.8408C21.1658 15.9731 19.9731 17.1658 18.8408 18.4144L19.952 19.422C18.8535 20.6333 17.8135 21.8987 16.8367 23.2137L15.6326 22.3193C14.6293 23.6698 13.6905 25.0714 12.8209 26.5192L14.1067 27.2916C13.2665 28.6905 12.4927 30.1339 11.7899 31.6174L10.4343 30.9751C9.71544 32.4924 9.0685 34.0504 8.49791 35.6449L9.91021 36.1503C9.36186 37.6825 8.88619 39.2494 8.48733 40.8466L7.03202 40.4832C6.62647 42.1073 6.29804 43.7617 6.05081 45.4424L7.53484 45.6607C7.29879 47.2655 7.13897 48.895 7.05919 50.5456L5.56094 50.4732C5.52046 51.3105 5.5 52.1529 5.5 53V55.45H7V60.35H5.5V65.25H7V70.15H5.5V75.05H7V79.95H5.5V84.85H7V89.75H5.5V94.65H7V99.55H5.5V102Z" stroke="black" stroke-width="3" stroke-dasharray="5 5" shape-rendering="crispEdges"/>
</g>
<defs>
<filter id="filter0_d_29_7" x="0" y="0" width="339" height="163" filterUnits="userSpaceOnUse" color-interpolation-filters="sRGB">
<feFlood flood-opacity="0" result="BackgroundImageFix"/>
<feColorMatrix in="SourceAlpha" type="matrix" values="0 0 0 0 0 0 0 0 0 0 0 0 0 0 0 0 0 0 127 0" result="hardAlpha"/>
<feOffset dy="4"/>
<feGaussianBlur stdDeviation="2"/>
<feComposite in2="hardAlpha" operator="out"/>
<feColorMatrix type="matrix" values="0 0 0 0 0 0 0 0 0 0 0 0 0 0 0 0 0 0 0.25 0"/>
<feBlend mode="normal" in2="BackgroundImageFix" result="effect1_dropShadow_29_7"/>
<feBlend mode="normal" in="SourceGraphic" in2="effect1_dropShadow_29_7" result="shape"/>
</filter>
<linearGradient id="paint0_linear_29_7" x1="135.5" y1="3" x2="135.5" y2="152" gradientUnits="userSpaceOnUse">
<stop stop-opacity="0.25"/>
<stop offset="1" stop-color="#7CF91B"/>
</linearGradient>
</defs>
</svg>
